<?xml version="1.0" encoding="utf-8"?>
<svg width="273px" height="233px" viewBox="0 0 273 233" version="1.1" xmlns:xlink="http://www.w3.org/1999/xlink" xmlns="http://www.w3.org/2000/svg">
  <g id="Logo">
    <g id="G" fill="#05FDD8">
      <path d="M131.44 224.5Q110.128 224.5 94.288 216.58Q78.448 208.66 69.664 194.404Q60.88 180.148 60.88 161.14L60.88 71.86Q60.88 52.564 69.664 38.452Q78.448 24.34 94.288 16.42Q110.128 8.50003 131.44 8.5Q152.464 8.5 168.16 16.42Q183.856 24.34 192.64 38.452Q201.424 52.564 201.424 71.86L158.224 71.86Q158.224 59.188 151.168 52.564Q144.112 45.94 131.152 45.94Q118.192 45.94 111.136 52.564Q104.08 59.188 104.08 71.86L104.08 161.14Q104.08 173.524 111.136 180.292Q118.192 187.06 131.152 187.06Q144.112 187.06 151.168 180.292Q158.224 173.524 158.224 161.14L158.224 142.996L127.12 142.996L127.12 106.42L201.424 106.42L201.424 161.14Q201.424 180.148 192.64 194.404Q183.856 208.66 168.16 216.58Q152.464 224.5 131.44 224.5Z" />
    </g>
    <g id="G" fill="#FD2155" transform="translate(13 0)">
      <path d="M131.44 224.5Q110.128 224.5 94.288 216.58Q78.448 208.66 69.664 194.404Q60.88 180.148 60.88 161.14L60.88 71.86Q60.88 52.564 69.664 38.452Q78.448 24.34 94.288 16.42Q110.128 8.50003 131.44 8.5Q152.464 8.5 168.16 16.42Q183.856 24.34 192.64 38.452Q201.424 52.564 201.424 71.86L158.224 71.86Q158.224 59.188 151.168 52.564Q144.112 45.94 131.152 45.94Q118.192 45.94 111.136 52.564Q104.08 59.188 104.08 71.86L104.08 161.14Q104.08 173.524 111.136 180.292Q118.192 187.06 131.152 187.06Q144.112 187.06 151.168 180.292Q158.224 173.524 158.224 161.14L158.224 142.996L127.12 142.996L127.12 106.42L201.424 106.42L201.424 161.14Q201.424 180.148 192.64 194.404Q183.856 208.66 168.16 216.58Q152.464 224.5 131.44 224.5Z" />
    </g>
  </g>
</svg>